<?xml version="1.0" encoding="UTF-8"?>
<svg version="1.1" xmlns="http://www.w3.org/2000/svg" width="12" height="10">
<path d="M0 0 C3.96 0 7.92 0 12 0 C12 3.3 12 6.6 12 10 C8.04 10 4.08 10 0 10 C0 6.7 0 3.4 0 0 Z " fill="#F66E13" transform="translate(0,0)"/>
<path d="M0 0 C0 0.99 0 1.98 0 3 C-3.20808915 5.1387261 -4.27698497 5.47730962 -8 5 C-8.66 4.01 -9.32 3.02 -10 2 C-9.0925 2.226875 -8.185 2.45375 -7.25 2.6875 C-4.00496499 3.32605545 -4.00496499 3.32605545 -1.625 1.5625 C-1.08875 1.046875 -0.5525 0.53125 0 0 Z " fill="#FEAE62" transform="translate(11,0)"/>
</svg>
